<?xml version="1.0" standalone="no"?>
<!DOCTYPE svg PUBLIC "-//W3C//DTD SVG 20010904//EN"
 "http://www.w3.org/TR/2001/REC-SVG-20010904/DTD/svg10.dtd">
<svg version="1.0" xmlns="http://www.w3.org/2000/svg"
 width="500.000000pt" height="500.000000pt" viewBox="0 0 500.000000 500.000000"
 preserveAspectRatio="xMidYMid meet">
<metadata>
Created by potrace 1.14, written by Peter Selinger 2001-2017
</metadata>
<g transform="translate(0.000000,500.000000) scale(0.100000,-0.100000)"
fill="#000000" stroke="none">
<path d="M0 2500 l0 -2500 293 1 292 0 -66 23 c-109 38 -170 77 -259 166 -181
181 -258 398 -247 690 6 162 29 257 91 385 148 306 402 455 774 455 221 0 477
-76 586 -173 l36 -32 23 -182 c16 -123 20 -183 13 -184 -6 0 -69 -6 -139 -13
-149 -14 -134 -23 -162 103 l-19 84 -50 23 c-95 43 -173 59 -301 58 -100 0
-129 -3 -176 -22 -133 -53 -226 -153 -271 -291 -30 -93 -37 -328 -13 -435 23
-104 65 -184 130 -245 68 -64 137 -97 236 -112 235 -35 421 87 437 287 l5 64
-167 0 -166 0 0 145 0 145 385 0 385 0 0 -145 0 -145 -40 0 -40 0 0 -320 0
-320 -139 0 -139 0 -12 68 c-20 112 -16 109 -68 60 -59 -55 -109 -86 -186
-114 l-61 -23 725 0 c715 0 724 1 662 18 -147 42 -308 148 -403 264 -74 92
-136 222 -160 342 -48 231 0 514 123 723 18 31 74 98 123 148 78 79 104 98
185 137 140 67 220 82 425 81 139 -1 184 -5 250 -22 91 -25 264 -107 312 -149
l33 -28 20 -193 c11 -107 20 -195 20 -197 0 -4 -281 -28 -284 -24 -2 2 -12 53
-22 113 l-19 110 -45 22 c-101 51 -282 76 -395 55 -180 -34 -306 -166 -351
-368 -12 -56 -15 -109 -12 -221 4 -126 8 -157 30 -219 62 -174 202 -276 408
-298 106 -11 301 22 352 59 12 9 22 48 34 134 17 119 18 122 43 122 31 0 255
-21 259 -25 1 -1 -5 -90 -14 -196 -14 -168 -19 -197 -37 -217 -50 -55 -173
-113 -322 -152 -69 -19 -59 -19 1013 -19 l1082 -1 0 2500 0 2500 -2500 0
-2500 0 0 -2500z m4505 -834 c185 -54 313 -166 356 -309 19 -61 27 -178 18
-250 -18 -146 -121 -289 -255 -355 -30 -14 -54 -29 -54 -32 0 -3 49 -95 109
-205 l109 -200 101 -3 101 -3 0 -150 0 -149 -216 2 -216 3 -165 318 -165 317
-114 0 -114 0 0 -170 0 -170 90 0 90 0 0 -150 0 -150 -355 0 -355 0 0 150 0
150 90 0 90 0 0 540 0 539 -87 3 -88 3 -3 148 -3 148 488 -4 c429 -3 495 -6
548 -21z"/>
<path d="M4000 1159 l0 -231 158 5 c86 3 173 10 193 16 57 18 102 53 129 101
33 61 36 186 4 240 -46 79 -116 100 -334 100 l-150 0 0 -231z"/>
</g>
</svg>
