<?xml version="1.0" standalone="no"?>
<!DOCTYPE svg PUBLIC "-//W3C//DTD SVG 20010904//EN"
 "http://www.w3.org/TR/2001/REC-SVG-20010904/DTD/svg10.dtd">
<svg version="1.0" xmlns="http://www.w3.org/2000/svg"
 width="600.000000pt" height="600.000000pt" viewBox="0 0 600.000000 600.000000"
 preserveAspectRatio="xMidYMid meet">
<metadata>
Created by potrace 1.14, written by Peter Selinger 2001-2017
</metadata>
<g transform="translate(0.000000,600.000000) scale(0.100000,-0.100000)"
fill="#000000" stroke="none">
<path d="M0 3000 l0 -3000 3000 0 3000 0 0 3000 0 3000 -3000 0 -3000 0 0
-3000z m2605 1756 c50 -50 45 -112 -11 -147 -35 -22 -36 -22 -95 -4 -56 17
-61 17 -126 0 -129 -35 -353 -160 -353 -197 0 -4 26 -5 58 -2 43 5 96 -2 212
-25 296 -59 338 -63 535 -55 108 4 195 12 219 20 21 8 78 14 127 14 86 0 373
37 513 65 60 13 116 12 116 -2 0 -2 -20 -39 -45 -83 -45 -77 -47 -79 -118
-109 -40 -16 -104 -37 -142 -47 -82 -20 -107 -39 -112 -90 -5 -48 -9 -55 -98
-169 -47 -60 -75 -105 -75 -120 0 -21 -12 -31 -75 -62 -95 -47 -115 -80 -95
-156 7 -27 13 -60 13 -72 0 -45 -46 -159 -74 -184 -17 -16 -40 -59 -59 -111
-29 -79 -30 -85 -14 -97 32 -23 182 -16 273 12 70 22 80 29 90 56 8 24 7 37
-4 59 -8 16 -19 30 -25 32 -5 1 -12 17 -16 34 l-6 31 84 22 c99 27 121 22 186
-42 38 -37 42 -46 42 -88 0 -79 -11 -95 -68 -103 -51 -7 -69 -20 -87 -64 -10
-22 -24 -27 -170 -57 -183 -37 -324 -74 -407 -105 -52 -19 -59 -25 -70 -61
-10 -35 -9 -45 9 -83 l21 -43 -23 -29 c-19 -25 -23 -43 -26 -134 -4 -90 -8
-110 -27 -137 -13 -18 -31 -56 -42 -85 -10 -29 -31 -86 -45 -126 -27 -76 -44
-224 -30 -259 4 -10 9 -40 11 -68 8 -88 8 -88 67 -59 29 15 94 51 145 81 51
30 114 61 140 70 47 16 187 115 229 163 12 14 25 40 29 57 3 18 20 53 36 78
28 42 32 45 64 39 25 -4 40 -1 62 15 l30 21 41 -45 c38 -41 41 -49 35 -83 -4
-20 -13 -49 -21 -65 -12 -25 -19 -27 -71 -27 -54 -1 -60 -3 -108 -48 -28 -26
-56 -60 -63 -77 -9 -23 -60 -62 -209 -161 -108 -73 -216 -142 -239 -155 -24
-12 -43 -26 -43 -31 0 -4 -12 -8 -27 -8 -30 0 -108 -20 -159 -41 -26 -10 -40
-9 -100 11 -38 13 -88 38 -111 57 -39 32 -41 37 -48 102 l-7 69 -66 40 c-55
32 -67 44 -70 68 -1 16 -9 45 -18 64 -14 32 -14 43 0 110 27 128 83 226 169
297 19 17 27 32 27 56 0 34 45 137 60 137 5 0 3 18 -5 39 -12 34 -12 48 1 103
13 55 21 68 64 106 40 35 50 50 50 75 0 45 -20 54 -182 83 -77 13 -174 36
-214 49 -41 14 -83 25 -94 25 -27 0 -88 -80 -212 -275 -134 -211 -168 -254
-298 -381 -61 -59 -110 -113 -110 -120 0 -7 -8 -18 -19 -23 -10 -6 -24 -23
-30 -40 -12 -28 -80 -91 -99 -91 -5 0 -47 -37 -93 -83 -63 -62 -105 -93 -168
-125 -46 -23 -88 -42 -95 -42 -27 0 -118 -52 -145 -82 -16 -19 -51 -46 -78
-60 -48 -26 -49 -26 -118 -12 -38 8 -76 21 -85 28 -27 25 -154 92 -217 115
-62 23 -63 24 -63 61 0 22 -7 43 -16 51 -14 11 -16 30 -12 114 4 84 11 116 43
200 52 140 81 192 113 209 39 21 82 80 82 114 0 23 10 37 51 68 27 21 73 58
100 82 27 23 55 42 62 42 7 0 17 8 23 18 7 10 59 42 117 72 127 66 144 65 195
-20 43 -73 62 -138 69 -237 5 -69 3 -88 -15 -125 -11 -23 -23 -67 -27 -96 -9
-66 -29 -92 -80 -99 -50 -6 -77 19 -97 92 -12 40 -21 53 -48 67 l-34 18 2 77
c3 101 -8 147 -34 151 -23 3 -104 -49 -156 -100 -29 -29 -38 -46 -38 -72 0
-28 -5 -36 -30 -46 -26 -11 -30 -18 -30 -49 0 -27 -7 -44 -26 -62 -42 -39
-124 -186 -131 -234 -4 -33 1 -61 22 -120 37 -101 85 -143 189 -169 l73 -19
80 49 c211 129 297 193 452 338 68 64 138 119 175 138 78 41 287 246 304 298
7 19 25 44 41 54 18 13 41 47 65 101 28 61 44 85 69 99 37 21 119 140 110 162
-9 23 -127 19 -161 -5 -15 -11 -49 -26 -77 -34 -198 -59 -200 -59 -203 -96 -4
-43 8 -51 83 -51 34 0 66 -5 73 -12 14 -14 16 -44 4 -52 -18 -11 -227 -37
-250 -31 -63 16 -126 99 -91 121 6 3 8 18 5 33 -3 14 2 49 11 76 9 28 17 56
19 63 2 8 24 12 61 12 35 1 66 6 77 15 11 8 32 15 47 15 16 0 63 16 106 36
l78 35 111 -7 c62 -4 132 -4 156 0 40 6 47 11 78 62 20 33 48 64 70 77 26 14
53 47 91 109 45 75 62 93 106 118 29 17 100 72 159 122 58 51 129 110 157 132
58 43 242 136 270 136 10 0 45 18 77 40 42 28 69 40 95 40 21 0 64 14 105 35
38 19 82 35 98 35 21 0 32 7 40 25 8 16 20 25 35 25 13 0 32 7 43 15 18 15 18
15 -6 10 -71 -14 -138 -20 -160 -14 -14 4 -77 7 -140 8 -92 1 -125 -3 -168
-19 -94 -36 -197 -26 -522 51 -75 17 -124 22 -230 22 l-135 -1 -61 -40 c-33
-22 -96 -66 -139 -97 l-80 -57 -92 6 c-58 4 -100 2 -115 -5 -22 -10 -68 -73
-81 -111 -4 -12 -17 -18 -38 -18 -17 0 -89 -12 -161 -27 l-130 -26 -102 24
c-127 30 -152 51 -166 135 -16 97 -11 192 13 259 16 43 28 61 42 63 53 8 66
14 75 37 7 18 24 29 75 44 140 44 221 54 369 48 149 -6 371 -45 413 -73 28
-18 161 -19 183 -1 9 7 26 28 38 47 33 52 69 90 86 90 29 0 97 32 107 51 6 11
20 19 36 19 14 0 40 9 58 20 18 11 68 32 111 46 43 14 87 34 97 45 28 30 120
27 152 -5z m1683 -1690 c47 -25 89 -79 109 -141 19 -59 19 -62 2 -150 -10 -49
-18 -106 -17 -125 1 -26 -13 -58 -52 -123 -57 -94 -87 -124 -162 -156 -25 -11
-49 -28 -52 -39 -4 -11 -15 -27 -26 -37 -11 -10 -20 -29 -20 -42 0 -12 -6 -23
-12 -24 -7 0 -23 -13 -36 -30 -22 -27 -22 -29 -5 -35 57 -19 144 -65 175 -93
20 -17 57 -39 82 -47 26 -9 46 -22 46 -30 0 -8 12 -20 28 -27 15 -6 38 -25 51
-40 13 -15 36 -34 50 -42 18 -9 32 -28 40 -55 15 -49 7 -63 -46 -81 -48 -16
-110 -4 -162 31 -55 38 -129 60 -197 60 -33 0 -56 5 -64 15 -7 8 -28 17 -47
21 -18 4 -52 22 -74 40 -57 47 -89 45 -164 -11 l-60 -45 -91 0 c-51 0 -99 -3
-108 -6 -9 -3 -25 -21 -37 -40 -11 -19 -33 -41 -48 -48 -24 -13 -30 -12 -69
11 -38 23 -42 29 -42 64 0 21 5 50 12 64 12 28 62 60 78 50 5 -3 11 4 15 15
11 35 75 67 170 85 114 22 122 25 169 69 22 20 47 36 56 36 33 0 80 69 80 119
0 21 6 32 19 36 11 3 38 35 60 70 23 35 54 74 70 86 37 27 85 117 106 194 25
96 15 295 -15 295 -4 0 -54 -22 -111 -49 -76 -36 -112 -59 -132 -86 -16 -20
-40 -41 -53 -47 -13 -6 -24 -17 -24 -25 0 -7 -11 -18 -25 -23 -13 -5 -30 -19
-37 -30 -25 -41 -75 -63 -130 -58 -52 5 -68 18 -67 53 0 21 146 135 172 135 8
0 34 7 60 16 47 16 87 56 87 88 0 9 19 26 45 38 25 12 45 26 45 30 0 4 10 8
23 8 12 0 49 13 82 29 44 20 67 26 83 20 18 -7 69 1 140 20 2 1 15 -5 30 -13z
m1300 0 c47 -25 89 -79 109 -141 19 -59 19 -62 2 -150 -10 -49 -18 -106 -17
-125 1 -26 -13 -58 -52 -123 -57 -94 -87 -124 -162 -156 -25 -11 -49 -28 -52
-39 -4 -11 -15 -27 -26 -37 -11 -10 -20 -29 -20 -42 0 -12 -6 -23 -12 -24 -7
0 -23 -13 -36 -30 -22 -27 -22 -29 -5 -35 57 -19 144 -65 175 -93 20 -17 57
-39 82 -47 26 -9 46 -22 46 -30 0 -8 12 -20 28 -27 15 -6 38 -25 51 -40 13
-15 36 -34 50 -42 18 -9 32 -28 40 -55 15 -49 7 -63 -46 -81 -48 -16 -110 -4
-162 31 -55 38 -129 60 -197 60 -33 0 -56 5 -64 15 -7 8 -28 17 -47 21 -18 4
-52 22 -74 40 -57 47 -89 45 -164 -11 l-60 -45 -91 0 c-51 0 -99 -3 -108 -6
-9 -3 -25 -21 -37 -40 -11 -19 -33 -41 -48 -48 -24 -13 -30 -12 -69 11 -38 23
-42 29 -42 64 0 21 5 50 12 64 12 28 62 60 78 50 5 -3 11 4 15 15 11 35 75 67
170 85 114 22 122 25 169 69 22 20 47 36 56 36 33 0 80 69 80 119 0 21 6 32
19 36 11 3 38 35 60 70 23 35 54 74 70 86 37 27 85 117 106 194 25 96 15 295
-15 295 -4 0 -54 -22 -111 -49 -76 -36 -112 -59 -132 -86 -16 -20 -40 -41 -53
-47 -13 -6 -24 -17 -24 -25 0 -7 -11 -18 -25 -23 -13 -5 -30 -19 -37 -30 -25
-41 -75 -63 -130 -58 -52 5 -68 18 -67 53 0 21 146 135 172 135 8 0 34 7 60
16 47 16 87 56 87 88 0 9 19 26 45 38 25 12 45 26 45 30 0 4 10 8 23 8 12 0
49 13 82 29 44 20 67 26 83 20 18 -7 69 1 140 20 2 1 15 -5 30 -13z"/>
<path d="M1153 4400 c-28 -4 -83 -17 -120 -29 -62 -18 -76 -28 -141 -95 -40
-42 -72 -79 -72 -84 0 -5 19 -35 42 -67 l41 -58 109 6 c80 4 113 10 121 21 7
8 44 22 82 32 89 21 166 55 215 94 21 16 43 30 50 30 28 0 202 90 198 102 -3
8 -36 16 -89 21 -46 5 -94 15 -106 23 -25 15 -233 18 -330 4z"/>
<path d="M2962 3955 c-49 -25 -99 -45 -110 -45 -30 0 -154 -66 -203 -108 -24
-21 -66 -46 -94 -56 -31 -12 -67 -37 -96 -66 -25 -26 -53 -50 -62 -53 -10 -4
-17 -13 -17 -22 0 -8 -5 -15 -10 -15 -19 0 -111 -92 -167 -168 -31 -40 -70
-84 -88 -98 -18 -14 -35 -34 -38 -44 -4 -16 0 -20 21 -20 51 -1 164 -30 231
-59 40 -18 89 -31 125 -34 l58 -4 36 50 c28 38 50 57 97 78 83 37 92 50 97
139 3 41 13 103 23 137 16 57 26 71 111 155 52 51 94 98 94 103 0 6 17 33 38
60 84 111 86 115 64 115 -11 0 -60 -20 -110 -45z"/>
</g>
</svg>
