<?xml version="1.0" encoding="utf-8"?>
<!-- Generator: Adobe Illustrator 22.1.0, SVG Export Plug-In . SVG Version: 6.00 Build 0)  -->
<svg version="1.1" id="Layer_1" xmlns="http://www.w3.org/2000/svg" xmlns:xlink="http://www.w3.org/1999/xlink" x="0px" y="0px"
	 viewBox="0 0 1000 1252.9" style="enable-background:new 0 0 1000 1252.9;" xml:space="preserve">
<g>
	<g>
		<path d="M0.1,625.8c0-197.8,0-395.6,0-593.4c0-25.7,6.4-32.2,32-32.2c222.3,0,444.5,0,666.8-0.1c12.1,0,21.4,3.6,30.1,12.3
			c85.6,86,171.4,171.7,257.3,257.3c8.8,8.8,13.2,18.3,13.2,31.2c-0.3,308.3-0.2,616.5-0.2,924.8c0,19.7-8.4,27.2-30.2,27.2
			c-104.6,0.1-209.1,0.1-313.7,0.1c-206,0-411.9-0.1-617.9-0.1c-2.7,0-5.4,0-8.1,0c-22-0.3-29.3-7.6-29.3-29.5
			C0,1126,0,1028.7,0,931.4C0,829.5,0,727.7,0.1,625.8C0,625.8,0.1,625.8,0.1,625.8z M952.8,1207c0-297.6,0-594.2,0-891.8
			c-5.5,0-10,0-14.5,0c-75.1,0-150.3,0-225.4-0.2c-21.7-0.1-28.4-7.2-28.4-28.5c0-75.6,0-151.2,0-226.7c0-4.7,0-9.5,0-13.6
			c-214.3,0-426.3,0-638.3,0c0,387.4,0,773.8,0,1160.9C348.6,1207,650.2,1207,952.8,1207z M730.7,80.6c0,62.4,0,124.6,0,186.9
			c63,0,125.1,0,186.9,0C855.3,205.1,793.4,143.2,730.7,80.6z"/>
	</g>
	<path d="M686,716.7c-23.1-4.1-47.5-1.8-71.3-0.8c-11,0.5-19.8,0.9-26.7-9.7c-23.7-36.8-48.2-73-71.9-109.8
		c-2.5-3.9-2.2-10.3-1.4-15.3c2.3-15.7,9.2-43.7,10.7-70.8c1.9-33.9-4.3-66.2-37.7-71c-37.1-5.3-57.3,27.1-56.2,60.7
		c1,29.1,14.2,57.9,21.5,85.9c1.7,6.6,3.3,14.5,1.2,20.6c-19.4,56.3-39.4,112.3-59.8,168.2c-1.9,5.2-7.3,9.9-12.2,12.9
		c-18.1,11-38.2,19.4-54.8,32.2c-16.1,12.5-31.6,27.5-42.4,44.6c-15.6,24.6-6.6,52.2,18.5,71.2c18.7,14.1,40.6,11,61.9-9.9
		c9-8.8,17.6-18.5,24.2-29.1c12.7-20.2,23.6-41.6,36.1-62c3.4-5.6,8.9-11.9,14.9-13.9c42.6-14.6,85.7-28.1,128.5-42.2
		c7.6-2.5,12.7-0.6,19.4,4c15.4,10.8,31.2,22,48.5,28.8c31.3,12.3,57.9,1.9,76-26.2C732.5,754.5,721.4,723,686,716.7z M320.8,898.1
		c-16.7-22,52.4-57.7,52.4-57.7S339.1,922.2,320.8,898.1z M477.5,480.1c12.6-0.3,1.4,60.5,1.4,60.5
		C470.1,516.1,464.9,480.4,477.5,480.1z M442.6,772.5c15.5-44,30.9-87.8,46.4-131.8c22.5,32.6,44.4,64.6,66.3,96.3
		C518.4,748.6,481.1,760.4,442.6,772.5z M660.8,774.2c-19.1,0-38-20-38-20s52.1-3.5,56.8,2.3C686.8,765.4,673.6,774.2,660.8,774.2z"
		/>
</g>
</svg>
