<?xml version="1.0" encoding="UTF-8"?>
<svg width="24px" height="24px" viewBox="0 0 24 24" version="1.1" xmlns="http://www.w3.org/2000/svg" xmlns:xlink="http://www.w3.org/1999/xlink">
    <!-- Generator: Sketch 51.2 (57519) - http://www.bohemiancoding.com/sketch -->
    <title>google-plus-logo-button</title>
    <desc>Created with Sketch.</desc>
    <defs></defs>
    <g id="➕-Symbols" stroke="none" stroke-width="1" fill="none" fill-rule="evenodd">
        <g id="footer_pattern" transform="translate(-768.000000, -203.000000)" fill="#163966" fill-rule="nonzero">
            <g id="Group" transform="translate(648.000000, 203.000000)">
                <g id="google-plus-logo-button" transform="translate(120.000000, 0.000000)">
                    <path d="M10.32,13.8912 C10.24272,13.83984 10.16352,13.78416 10.08048,13.728 C9.83904,13.65408 9.58272,13.61568 9.32016,13.61232 L9.28848,13.61232 C8.08176,13.61232 7.02384,14.3424 7.02384,15.17568 C7.02384,16.08288 7.93056,16.79184 9.08736,16.79184 C10.61328,16.79184 11.38656,16.2648 11.38656,15.228 C11.38656,15.13008 11.37504,15.02832 11.35056,14.92608 C11.24736,14.52384 10.87824,14.2728 10.32,13.8912 Z" id="Shape"></path>
                    <path d="M9.46512,10.72896 C9.46608,10.72896 9.46608,10.72896 9.46608,10.72896 C9.75456,10.72896 9.99792,10.6152 10.18656,10.3992 C10.48224,10.06224 10.61328,9.50928 10.53552,8.92224 C10.39872,7.87296 9.64848,6.99936 8.8656,6.9768 L8.8344,6.97584 C8.55744,6.97584 8.31024,7.09008 8.12256,7.30512 C7.8312,7.63776 7.70784,8.1648 7.78416,8.75088 C7.92144,9.7992 8.68752,10.70496 9.45408,10.72896 L9.46512,10.72896 Z" id="Shape"></path>
                    <path d="M11.91648,0 C5.34576,0 0,5.34576 0,11.91648 C0,18.48672 5.34576,23.83296 11.91648,23.83296 C18.48672,23.83296 23.83296,18.48672 23.83296,11.91648 C23.83296,5.34576 18.48768,0 11.91648,0 Z M10.54272,17.7192 C10.09248,17.84928 9.60528,17.91504 9.09408,17.91504 C8.5248,17.91504 7.9776,17.84976 7.46736,17.72064 C6.48,17.47152 5.7504,16.9992 5.4096,16.39056 C5.26272,16.12752 5.18832,15.8472 5.18832,15.5568 C5.18832,15.25776 5.25984,14.9544 5.40096,14.65392 C5.94192,13.50096 7.368,12.72528 8.94768,12.72528 C8.96352,12.72528 8.9784,12.72528 8.9928,12.72528 C8.86464,12.4992 8.80272,12.26496 8.80272,12.01872 C8.80272,11.89632 8.81904,11.77152 8.85168,11.64432 C7.19472,11.60688 5.95488,10.39344 5.95488,8.7936 C5.95488,7.66416 6.85776,6.56352 8.14896,6.11904 C8.53536,5.9856 8.92944,5.91744 9.3168,5.91744 L12.86016,5.91744 C12.98064,5.91744 13.08768,5.99568 13.12512,6.1104 C13.16256,6.22464 13.12128,6.3504 13.02384,6.42096 L12.23136,6.99456 C12.18384,7.02816 12.12672,7.0464 12.06768,7.0464 L11.784,7.0464 C12.15024,7.4856 12.3648,8.112 12.3648,8.8152 C12.3648,9.59136 11.97216,10.32528 11.25744,10.88448 C10.70544,11.31456 10.68384,11.43312 10.68384,11.6784 C10.69056,11.81328 11.07504,12.25344 11.49936,12.55344 C12.48768,13.25232 12.85536,13.93824 12.85536,15.08256 C12.85488,16.27824 11.9472,17.3112 10.54272,17.7192 Z M18.5448,11.64144 C18.5448,11.79504 18.41952,11.91984 18.2664,11.91984 L16.2528,11.91984 L16.2528,13.9344 C16.2528,14.088 16.12752,14.2128 15.97536,14.2128 L15.40176,14.2128 C15.2472,14.2128 15.1224,14.088 15.1224,13.9344 L15.1224,11.91984 L13.11024,11.91984 C12.95664,11.91984 12.83184,11.796 12.83184,11.64144 L12.83184,11.0688 C12.83184,10.9152 12.95664,10.78944 13.11024,10.78944 L15.1224,10.78944 L15.1224,8.7768 C15.1224,8.62272 15.2472,8.4984 15.40176,8.4984 L15.97536,8.4984 C16.12752,8.4984 16.2528,8.62272 16.2528,8.7768 L16.2528,10.78944 L18.26592,10.78944 C18.41904,10.78944 18.54432,10.91424 18.54432,11.06784 L18.54432,11.64144 L18.5448,11.64144 Z" id="Shape"></path>
                </g>
            </g>
        </g>
    </g>
</svg>