<svg height="58" viewBox="0 0 121 58" width="121" xmlns="http://www.w3.org/2000/svg"><g fill="none" fill-rule="evenodd" stroke="#3e3e3e" stroke-width="1.5" transform="matrix(-1 0 0 1 120.666667 1.099379)"><path d="m21.5911536 39.2680292c0 1.560842-1.2207873 2.8276122-2.7249717 2.8276122s-2.7249717-1.2667702-2.7249717-2.8276122c0-1.562727 1.2207873-2.8276122 2.7249717-2.8276122s2.7249717 1.2648852 2.7249717 2.8276122z" fill-rule="nonzero"/><path d="m22.4087367 11.5127078c-2.2861571 4.4868359-1.3107774 9.5633086 2.1740862 11.3389353 3.4876957 1.7770697 8.1679622-.4177073 10.4541193-4.9045433s1.3107774-9.5633086-2.1769183-11.34037831c-3.4848636-1.77562669-8.16513.41915031-10.4512872 4.90598631"/><path d="m40.7517036 17.3472382c4.2321004-2.2422977 9.5781632-4.145071 16.3075496-5.5416429 13.6996481-2.84195552 32.3007447 2.3972557 32.3007447 25.8779928 0 5.8973178-.8189895 9.9590181-2.7306268 12.7026831l17.9257099-.0000014c6.349175 0 9.990834-3.5429752 9.990834-9.7192079 0-3.9835793-4.103735-8.4233135-9.990834-8.4233135h-5.5584938c-1.3812328 0-2.4977085-1.1585296-2.4977085-2.5917888s1.1164757-2.5917888 2.4977085-2.5917888h5.5584938c8.964276 0 14.986251 7.0367066 14.986251 13.6068911 0 9.0531182-5.882103 14.9027855-14.986251 14.9027855h-32.4702107c-.0128051 0-.0255877-.0000999-.0383472-.0002991-.5206087.0109507-1.0548597.0161936-1.6029988.0161936-1.4168298 0-3.0089475.007581-4.7262212.0060813l-38.0006611.095713-.0065883-.0111022c-.2361012.0017813-.4834953.0026224-.7426137.0026224-10.0890751 0-26.36621717-.9820038-26.36621717-5.5248793 0-3.5543958 10.66247777-16.766464 20.74002437-22.3477824-5.1221447-3.3163989-6.4105954-11.310771-2.7894999-18.4175711 3.8102619-7.47805996 11.610706-11.13602162 17.418812-8.1766438 5.1045533 2.60089985 6.980138 9.4423766 4.7811443 16.1350584z" fill-rule="nonzero"/></g></svg>