<?xml version="1.0" encoding="utf-8"?>
<!-- Generator: Adobe Illustrator 22.1.0, SVG Export Plug-In . SVG Version: 6.00 Build 0)  -->
<svg version="1.1" id="Layer_1" xmlns="http://www.w3.org/2000/svg" xmlns:xlink="http://www.w3.org/1999/xlink" x="0px" y="0px"
	 viewBox="0 0 92 130" style="enable-background:new 0 0 92 130;" xml:space="preserve">
<style type="text/css">
	.st0{fill:#3E3E3E;}
</style>
<title>Mug</title>
<desc>Created with Sketch.</desc>
<g>
	<path class="st0" d="M73.5,96.6c0.6-0.4,1.3-0.8,2-1.3l0.1-0.1c5.2-3.4,11-7.2,12.5-12.7v-0.1c0-0.1,0.1-0.2,0.1-0.3
		c1.8-6.5-0.5-13.5-5.6-17.8c-2.5-2.1-5.6-3.5-8.9-3.9c-2.1-0.3-4.3-0.1-6.6,0.5l-1.4,0.4v-9.1c0-3.2-2.6-5.8-5.8-5.8h-51
		c-3.2,0-5.8,2.6-5.8,5.8v64.7c0,5.7,4.4,10.4,9.8,10.4h43c5.4,0,9.8-4.7,9.8-10.4v-13.2c0-0.6,0.3-1.4,0.6-1.8
		c0.4-0.5,1.2-1.2,2.1-1.9C69.8,99,71.6,97.8,73.5,96.6z M63.4,116.9c0,4.5-3.3,8.1-7.4,8.1H13c-4.2,0-7.4-3.6-7.4-8.1V52.2
		c0-1.9,1.5-3.5,3.5-3.5H60c1.9,0,3.5,1.5,3.5,3.5L63.4,116.9L63.4,116.9z M85.5,82.9c-1.3,2.9-5.1,6.4-11.3,10.4l-1.5,1
		c-1.9,1.2-3.6,2.3-5.1,3.5l-1.8,1.3V83.5l1.7,1c1.3,0.8,2.7,1.1,4,1.1c4.5,0,8.1-3.6,8.1-8.1s-3.6-8.1-8.1-8.1
		c-1.4,0-2.8,0.4-4,1.1l-1.7,1v-7.9l0.8-0.3c1.6-0.6,3.2-0.9,4.8-0.9c0.1,0,0.1,0,0.2,0c3.5,0,6.9,1.2,9.7,3.5
		c4.5,3.7,6.4,9.8,4.9,15.4 M65.7,77.6c0-3.2,2.5-5.8,5.8-5.8s5.8,2.5,5.8,5.8s-2.5,5.8-5.8,5.8S65.7,80.8,65.7,77.6z"/>
	<path class="st0" d="M14.7,17.5c0,3,2.4,5.5,5.4,5.7h0.2c0.1,0,0.1,0,0.2,0h23.2c1.9,0,3.5,1.5,3.5,3.5c0,1.9-1.5,3.5-3.5,3.5h-4.5
		h-0.1c-0.1,0-0.2,0-0.3,0H25.3h-0.1c-0.1,0-0.2,0-0.3,0c-5.6,0.1-10.2,4.8-10.2,10.4c0,0.4,0.2,0.8,0.6,1c0.4,0.2,0.8,0.2,1.2,0
		s0.6-0.6,0.6-1c0-4.4,3.5-8,7.9-8.1h7.2l-1.4,1.9c-1.4,1.8-2.1,4-2.1,6.2c0,0.4,0.2,0.8,0.6,1s0.8,0.2,1.2,0c0.4-0.2,0.6-0.6,0.6-1
		c0-4.4,3.4-7.9,7.8-8.1h14.2c0.1,0,0.2,0,0.2,0h0.2c3-0.2,5.3-2.7,5.3-5.7s-2.4-5.5-5.4-5.7h-0.1c-0.1,0-0.2,0-0.3,0H29.8
		c-1.9,0-3.5-1.5-3.5-3.5c0-1.9,1.5-3.5,3.5-3.5h18.5c0.1,0,0.2,0,0.2,0h0.2c5.6-0.2,10-4.8,10-10.4c0-0.4-0.2-0.8-0.6-1
		c-0.4-0.2-0.8-0.2-1.2,0s-0.6,0.6-0.6,1c0,4.5-3.6,8.1-8.1,8.1h-7l1.4-1.9c1.4-1.8,2.2-4,2.2-6.2c0-0.3-0.1-0.6-0.3-0.9
		c-0.2-0.2-0.6-0.4-0.8-0.3l0,0c-0.3,0-0.6,0.1-0.8,0.4c-0.2,0.2-0.3,0.5-0.3,0.8c0,4.5-3.6,8.1-8.1,8.1H20.8c-0.1,0-0.1,0-0.2,0
		c-0.2,0-0.2,0-0.3,0h-0.2C17.1,12,14.7,14.5,14.7,17.5z M49.1,24.8l-0.6-1.5h4.4c1.9,0,3.5,1.5,3.5,3.5c0,1.9-1.5,3.5-3.5,3.5h-4.4
		l0.6-1.5c0.2-0.7,0.4-1.3,0.4-1.9C49.5,26.1,49.4,25.5,49.1,24.8z M20.5,14h4.4l-0.6,1.5c-0.2,0.7-0.4,1.3-0.4,1.9s0.1,1.2,0.4,1.9
		l0.6,1.5h-4.1c-0.1,0-0.1,0-0.2,0l0,0c-2,0-3.5-1.5-3.5-3.5C17.1,15.5,18.6,14,20.5,14z"/>
</g>
</svg>
