<?xml version="1.0" encoding="utf-8"?>
<!-- Generator: Adobe Illustrator 22.1.0, SVG Export Plug-In . SVG Version: 6.00 Build 0)  -->
<svg version="1.1" id="Layer_1" xmlns="http://www.w3.org/2000/svg" xmlns:xlink="http://www.w3.org/1999/xlink" x="0px" y="0px"
	 viewBox="0 0 76 91" style="enable-background:new 0 0 76 91;" xml:space="preserve">
<style type="text/css">
	.st0{fill:#3E3E3E;}
</style>
<title>Blood Vile</title>
<desc>Created with Sketch.</desc>
<path class="st0" d="M15,90.8c-6.7,0-12.2-5.5-12.2-12.2V11.6h24.5v66.9C27.3,85.3,21.8,90.8,15,90.8z M4.3,13.1v65.4
	c0,5.9,4.8,10.7,10.7,10.7c5.9,0,10.7-4.8,10.7-10.7V13.1H4.3z"/>
<path class="st0" d="M27.2,13H2.8L0.3,3.7c-0.4-1.5,0.5-3,1.9-3.4C2.5,0.3,2.7,0.2,3,0.2h24c0.2,0,0.5,0,0.7,0.1
	c1.5,0.4,2.3,1.9,1.9,3.4L27.2,13z M4,11.5h22l2.2-8.2C28.4,2.7,28,2,27.3,1.8c-0.1,0-0.2,0-0.3,0H3c-0.1,0-0.2,0-0.3,0
	C2,2,1.6,2.7,1.8,3.3L4,11.5z"/>
<path class="st0" d="M9.1,73.9C9.1,73.9,9.1,73.9,9.1,73.9l-5.5,0c-0.4,0-0.7-0.3-0.7-0.8c0-0.4,0.3-0.7,0.8-0.7c0,0,0,0,0,0l5.5,0
	c0.4,0,0.7,0.3,0.7,0.8C9.9,73.6,9.5,73.9,9.1,73.9z"/>
<path class="st0" d="M14.4,63.6H3.6c-0.4,0-0.8-0.3-0.8-0.8s0.3-0.8,0.8-0.8h10.8c0.4,0,0.8,0.3,0.8,0.8S14.9,63.6,14.4,63.6z"/>
<path class="st0" d="M14.4,44.6H3.6c-0.4,0-0.8-0.3-0.8-0.8s0.3-0.8,0.8-0.8h10.8c0.4,0,0.8,0.3,0.8,0.8S14.9,44.6,14.4,44.6z"/>
<path class="st0" d="M9.1,53.9C9.1,53.9,9.1,53.9,9.1,53.9l-5.5,0c-0.4,0-0.7-0.3-0.7-0.8c0-0.4,0.3-0.7,0.8-0.7c0,0,0,0,0,0l5.5,0
	c0.4,0,0.7,0.3,0.7,0.8C9.9,53.6,9.5,53.9,9.1,53.9z"/>
<path class="st0" d="M9.1,34.9C9.1,34.9,9.1,34.9,9.1,34.9l-5.5,0c-0.4,0-0.7-0.3-0.7-0.8c0-0.4,0.3-0.7,0.8-0.7c0,0,0,0,0,0l5.5,0
	c0.4,0,0.7,0.3,0.7,0.8C9.9,34.6,9.5,34.9,9.1,34.9z"/>
<path class="st0" d="M36.3,26.9c0,4,3.2,7.3,7.2,7.3c3.9,0,7.1-3.3,7.1-7.3c0-0.7-0.1-1.5-0.3-2.2c-0.2-0.7-0.6-1.3-1-1.9
	c-0.9-1.2-1.9-2.3-2.9-3.4c-0.3-0.3-0.5-0.6-0.8-0.9l-1.5-1.8c-0.1-0.2-0.4-0.3-0.6-0.3c-0.3,0-0.5,0.1-0.6,0.2l-4.9,5.6
	C37,23.7,36.3,25.3,36.3,26.9z M43.5,18.3c0.3,0.4,0.6,0.7,1,1.1c0.6,0.7,1.2,1.4,1.8,2.1c0.4,0.5,0.9,1,1.3,1.5s0.8,1,1.1,1.6
	c0.3,0.6,0.4,1.3,0.5,2c0,0.1,0,0.2,0,0.3c0,3.2-2.5,5.8-5.6,5.8s-5.7-2.6-5.7-5.8c0-0.8,0.2-1.6,0.5-2.3c0.3-0.7,0.7-1.3,1.3-1.9
	c1.1-1.1,2.1-2.3,3.1-3.5C42.9,18.8,43.2,18.6,43.5,18.3z"/>
<path class="st0" d="M53.7,64.7c-1.1-1.5-2.4-2.9-3.6-4.2l0,0c-0.2-0.2-0.3-0.4-0.5-0.6c-0.2-0.2-0.3-0.4-0.5-0.5l-1.9-2.2
	c-0.1-0.2-0.4-0.3-0.6-0.3c-0.4,0-0.6,0.2-0.7,0.2L39.8,64c-1.4,1.9-2.1,3.8-2.1,5.7c0,4.9,3.9,8.9,8.8,8.9c4.8,0,8.7-4,8.7-8.9
	c0-0.9-0.1-1.9-0.4-2.7C54.6,66.2,54.1,65.4,53.7,64.7z M46.6,77c-4,0-7.2-3.3-7.2-7.3c0-1,0.2-2,0.6-2.9c0.3-0.9,0.8-1.6,1.6-2.4
	c1.3-1.3,2.5-2.7,3.7-4.1l0.2-0.2c0.3-0.4,0.6-0.7,0.9-1.1l0.1-0.1l0.1,0.1c0.4,0.5,0.7,0.9,1.2,1.4l2.2,2.6
	c0.2,0.3,0.5,0.6,0.8,0.9s0.6,0.6,0.8,0.9c0.5,0.6,1,1.3,1.4,2c0.4,0.8,0.5,1.7,0.6,2.5l0,0.4C53.6,73.8,50.5,77,46.6,77z"/>
<path class="st0" d="M62.1,27.6l-8,9.1c-1.8,2.4-2.7,4.9-2.7,7.4c0,6.4,5.1,11.5,11.4,11.5C69,55.6,74,50.5,74,44.1
	c0-1.2-0.2-2.4-0.5-3.5c-0.3-1.1-1-2.1-1.6-3c-1.4-1.9-3.1-3.7-4.7-5.5c-0.2-0.2-0.5-0.5-0.7-0.7c-0.2-0.2-0.4-0.5-0.6-0.7l-2.5-3
	c-0.1-0.2-0.5-0.4-0.7-0.4C62.5,27.4,62.2,27.5,62.1,27.6z M64.6,31.6l3,3.4c0.3,0.4,0.7,0.8,1.1,1.2c0.4,0.4,0.7,0.8,1.1,1.2
	c0.7,0.8,1.3,1.7,1.8,2.7c0.5,1,0.7,2.2,0.9,3.4l0,0.5c0,5.4-4.3,9.8-9.5,9.8c-5.3,0-9.7-4.4-9.7-9.8c0-1.3,0.3-2.7,0.8-3.9
	c0.5-1.1,1.2-2.2,2.2-3.2c1.7-1.8,3.4-3.7,5-5.6l0.1-0.1c0.4-0.5,0.8-1,1.2-1.4l0.3-0.4l0.3,0.4C63.4,30.5,63.9,31,64.6,31.6z"/>
</svg>
