<?xml version="1.0" encoding="UTF-8"?>
<svg width="91px" height="104px" viewBox="0 0 91 104" version="1.1" xmlns="http://www.w3.org/2000/svg" xmlns:xlink="http://www.w3.org/1999/xlink">
    <!-- Generator: Sketch 51.2 (57519) - http://www.bohemiancoding.com/sketch -->
    <title>Pdf File - BLUE</title>
    <desc>Created with Sketch.</desc>
    <defs></defs>
    <g id="➕-Symbols" stroke="none" stroke-width="1" fill="none" fill-rule="evenodd">
        <g id="Pdf-File---BLUE" transform="translate(-45.000000, 0.000000)">
            <g transform="translate(45.000000, 0.000000)">
                <g fill-rule="nonzero" id="Pdf-File">
                    <g>
                        <g id="Layer_1">
                            <g id="XMLID_857_">
                                <g id="XMLID_223_">
                                    <g id="XMLID_237_" transform="translate(8.632000, 0.000000)">
                                        <path d="M72.2384,98.1552 C72.2384,99.736 70.9488,101.0256 69.368,101.0256 L5.928,101.0256 C4.3472,101.0256 3.0576,99.736 3.0576,98.1552 L3.0576,5.8448 C3.0576,4.264 4.3472,2.9744 5.928,2.9744 L53.7888,2.9744 L53.7888,17.524 C53.7888,19.6779105 55.5348895,21.424 57.6888,21.424 L72.2384,21.424 L72.2384,98.1552 Z" id="XMLID_242_"></path>
                                        <path d="M53.7888,0 L5.928,0 C2.704,0 0.0832,2.6208 0.0832,5.8448 L0.0832,98.1552 C0.0832,101.3792 2.704,104 5.928,104 L69.368,104 C72.592,104 75.2128,101.3792 75.2128,98.1552 L75.2128,21.4448 L53.7888,0 Z M72.2384,98.1552 C72.2384,99.736 70.9488,101.0256 69.368,101.0256 L5.928,101.0256 C4.3472,101.0256 3.0576,99.736 3.0576,98.1552 L3.0576,5.8448 C3.0576,4.264 4.3472,2.9744 5.928,2.9744 L53.7888,2.9744 L53.7888,17.524 C53.7888,19.6779105 55.5348895,21.424 57.6888,21.424 L72.2384,21.424 L72.2384,98.1552 Z" id="XMLID_239_" fill="#70B9C4"></path>
                                    </g>
                                    <g id="XMLID_232_" transform="translate(0.000000, 62.972000)" fill="#70B9C4">
                                        <rect id="Rectangle" x="0" y="0" width="91" height="29.9" rx="3.9"></rect>
                                    </g>
                                    <g id="XMLID_224_" transform="translate(16.744000, 12.272000)" fill="#70B9C4">
                                        <path d="M38.3344,2.8288 L1.5184,2.8288 C0.748735973,2.8288 0.1248,2.20486403 0.1248,1.4352 C0.1248,0.665535973 0.748735973,0.0416 1.5184,0.0416 L38.3344,0.0416 C39.104064,0.0416 39.728,0.665535973 39.728,1.4352 C39.728,2.20486403 39.104064,2.8288 38.3344,2.8288 Z" id="XMLID_231_"></path>
                                        <path d="M38.3344,9.4848 L1.5184,9.4848 C0.748735973,9.4848 0.1248,8.86086403 0.1248,8.0912 C0.1248,7.32153597 0.748735973,6.6976 1.5184,6.6976 L38.3344,6.6976 C39.104064,6.6976 39.728,7.32153597 39.728,8.0912 C39.728,8.86086403 39.104064,9.4848 38.3344,9.4848 Z" id="XMLID_230_"></path>
                                        <path d="M57.7824,16.12 L1.5184,16.12 C0.748735973,16.12 0.1248,15.496064 0.1248,14.7264 C0.1248,13.956736 0.748735973,13.3328 1.5184,13.3328 L57.7824,13.3328 C58.552064,13.3328 59.176,13.956736 59.176,14.7264 C59.176,15.496064 58.552064,16.12 57.7824,16.12 Z" id="XMLID_229_"></path>
                                        <path d="M57.7824,22.776 L1.5184,22.776 C0.748735973,22.776 0.1248,22.152064 0.1248,21.3824 C0.1248,20.612736 0.748735973,19.9888 1.5184,19.9888 L57.7824,19.9888 C58.552064,19.9888 59.176,20.612736 59.176,21.3824 C59.176,22.152064 58.552064,22.776 57.7824,22.776 Z" id="XMLID_228_"></path>
                                        <path d="M57.7824,29.432 L1.5184,29.432 C0.748735973,29.432 0.1248,28.808064 0.1248,28.0384 C0.1248,27.268736 0.748735973,26.6448 1.5184,26.6448 L57.7824,26.6448 C58.552064,26.6448 59.176,27.268736 59.176,28.0384 C59.176,28.808064 58.552064,29.432 57.7824,29.432 Z" id="XMLID_227_"></path>
                                        <path d="M57.7824,36.0672 L1.5184,36.0672 C0.748735973,36.0672 0.1248,35.443264 0.1248,34.6736 C0.1248,33.903936 0.748735973,33.28 1.5184,33.28 L57.7824,33.28 C58.552064,33.28 59.176,33.903936 59.176,34.6736 C59.176,35.443264 58.552064,36.0672 57.7824,36.0672 Z" id="XMLID_226_"></path>
                                        <path d="M57.7824,42.7232 L1.5184,42.7232 C0.748736019,42.7231999 0.124800117,42.099264 0.124800117,41.3296 C0.124800117,40.559936 0.748736019,39.9360001 1.5184,39.936 L57.7824,39.936 C58.552064,39.936 59.176,40.559936 59.176,41.3296 C59.176,42.099264 58.552064,42.7232 57.7824,42.7232 Z" id="XMLID_225_"></path>
                                    </g>
                                </g>
                            </g>
                        </g>
                    </g>
                </g>
                <text id="PROTOCOL" font-family="UniversLTStd, Univers LT Std" font-size="12" font-weight="normal" line-spacing="20" letter-spacing="0.9230769" fill="#FFFFFF">
                    <tspan x="9.6116924" y="76">PROTOCOL</tspan>
                </text>
            </g>
        </g>
    </g>
</svg>