<?xml version="1.0" encoding="UTF-8"?>
<svg width="33px" height="18px" viewBox="0 0 33 18" version="1.1" xmlns="http://www.w3.org/2000/svg" xmlns:xlink="http://www.w3.org/1999/xlink">
    <!-- Generator: Sketch 49 (51002) - http://www.bohemiancoding.com/sketch -->
    <title>arrow_up-[#337]</title>
    <desc>Created with Sketch.</desc>
    <defs></defs>
    <g id="Symbols" stroke="none" stroke-width="1" fill="none" fill-rule="evenodd">
        <g id="Mobile---footer" transform="translate(-145.000000, -24.000000)" fill="#FFFFFF" fill-rule="nonzero">
            <path d="M177.517385,41.4010541 C178.160872,40.7383081 178.160872,39.6664595 177.517385,39.0053499 L163.882059,24.9927716 C163.274651,24.3588834 162.431559,24 161.549831,24 C160.668103,24 159.825011,24.3588834 159.217603,24.9927716 L145.48163,39.1068073 C144.846392,39.7613713 144.838143,40.821765 145.46513,41.4861474 C145.767318,41.8108405 146.191634,41.9968598 146.637154,41.9999606 C147.082673,42.0030614 147.509579,41.8229664 147.816333,41.5025115 L160.38413,28.5863278 C160.687858,28.269122 161.109584,28.0895114 161.550656,28.0895114 C161.991728,28.0895114 162.413454,28.269122 162.717183,28.5863278 L175.185982,41.3994177 C175.48942,41.716534 175.910876,41.8961126 176.351683,41.8961126 C176.79249,41.8961126 177.213946,41.716534 177.517385,41.3994177" id="arrow_up-[#337]" transform="translate(161.500000, 33.000000) rotate(-360.000000) translate(-161.500000, -33.000000) "></path>
        </g>
    </g>
</svg>