<?xml version="1.0" encoding="UTF-8"?>
<svg width="19px" height="14px" viewBox="0 0 19 14" version="1.1" xmlns="http://www.w3.org/2000/svg" xmlns:xlink="http://www.w3.org/1999/xlink">
    <!-- Generator: Sketch 51.2 (57519) - http://www.bohemiancoding.com/sketch -->
    <title>Email</title>
    <desc>Created with Sketch.</desc>
    <defs></defs>
    <g id="➕-Symbols" stroke="none" stroke-width="1" fill="none" fill-rule="evenodd">
        <g id="Distributors-email" transform="translate(-31.000000, -251.000000)" fill="#3E3E3E" fill-rule="nonzero" stroke="#3E3E3E" stroke-width="0.1">
            <g id="Email" transform="translate(32.000000, 251.000000)">
                <g id="Layer_1">
                    <g id="Icon-Envelope">
                        <path d="M16.8229167,2.05416667 L16.15,1.38125 L9.91666667,7.61458333 C9.1375,8.39375 7.82708333,8.39375 7.04791667,7.61458333 L0.814583333,1.41666667 L0.141666667,2.08958333 L4.78125,6.72916667 L0.141666667,11.36875 L0.814583333,12.0416667 L5.45416667,7.40208333 L6.375,8.32291667 C6.94166667,8.88958333 7.68541667,9.20833333 8.46458333,9.20833333 C9.24375,9.20833333 9.9875,8.88958333 10.5541667,8.32291667 L11.475,7.40208333 L16.1145833,12.0416667 L16.7875,11.36875 L12.1479167,6.72916667 L16.8229167,2.05416667" id="Fill-3"></path>
                        <path d="M15.5125,13.2458333 L1.52291667,13.2458333 C0.708333333,13.2458333 0.0354166667,12.5729167 0.0354166667,11.7583333 L0.0354166667,1.77083333 C0.0354166667,0.95625 0.708333333,0.283333333 1.52291667,0.283333333 L15.5125,0.283333333 C16.3270833,0.283333333 17,0.95625 17,1.77083333 L17,11.7583333 C17,12.5729167 16.3270833,13.2458333 15.5125,13.2458333 Z M1.4875,1.23958333 C1.20416667,1.23958333 0.991666667,1.45208333 0.991666667,1.73541667 L0.991666667,11.7229167 C0.991666667,12.00625 1.20416667,12.21875 1.4875,12.21875 L15.4770833,12.21875 C15.7604167,12.21875 15.9729167,12.00625 15.9729167,11.7229167 L15.9729167,1.73541667 C15.9729167,1.45208333 15.7604167,1.23958333 15.4770833,1.23958333 L1.4875,1.23958333 Z" id="Fill-4"></path>
                    </g>
                </g>
            </g>
        </g>
    </g>
</svg>