<?xml version="1.0" encoding="utf-8"?>
<!-- Generator: Adobe Illustrator 22.1.0, SVG Export Plug-In . SVG Version: 6.00 Build 0)  -->
<svg version="1.1" id="Layer_1" xmlns="http://www.w3.org/2000/svg" xmlns:xlink="http://www.w3.org/1999/xlink" x="0px" y="0px"
	 viewBox="0 0 106 86" style="enable-background:new 0 0 106 86;" xml:space="preserve">
<style type="text/css">
	.st0{fill:#3E3E3E;}
</style>
<title>Group 2</title>
<desc>Created with Sketch.</desc>
<g id="_xD83D__xDEE0_-SITE-ARCHITECTURE">
	<g id="SOLUTIONS---Basic-Research" transform="translate(-366.000000, -1297.000000)">
		<g id="Group" transform="translate(299.000000, 1298.000000)">
			<g id="Group-2" transform="translate(67.500000, 0.000000)">
				<path class="st0" d="M52.2,26.7c-7.5,0-13.5-6.1-13.5-13.5S44.8-0.3,52.2-0.3s13.5,6.1,13.5,13.5S59.7,26.7,52.2,26.7z
					 M52.2,1.2c-6.6,0-12,5.4-12,12s5.4,12,12,12c6.6,0,12-5.4,12-12S58.9,1.2,52.2,1.2z"/>
				<path class="st0" d="M83.3,32.2c-5.7,0-10.3-4.6-10.3-10.3s4.6-10.3,10.3-10.3s10.3,4.6,10.3,10.3S89,32.2,83.3,32.2z M83.3,13
					c-4.9,0-8.8,4-8.8,8.8s4,8.8,8.8,8.8s8.8-4,8.8-8.8S88.2,13,83.3,13z"/>
				<path class="st0" d="M20.7,32.2c-5.7,0-10.3-4.6-10.3-10.3S15,11.5,20.7,11.5s10.3,4.6,10.3,10.3S26.4,32.2,20.7,32.2z M20.7,13
					c-4.9,0-8.8,4-8.8,8.8s4,8.8,8.8,8.8s8.8-4,8.8-8.8S25.6,13,20.7,13z"/>
				<path class="st0" d="M76.6,60c-0.4,0-0.8-0.3-0.8-0.8c0-13-10.6-23.6-23.6-23.6S28.6,46.2,28.6,59.2c0,0.4-0.3,0.8-0.8,0.8
					s-0.8-0.3-0.8-0.8c0-13.8,11.3-25.1,25.1-25.1s25.1,11.3,25.1,25.1C77.3,59.6,77,60,76.6,60z"/>
				<path class="st0" d="M104.2,60.3L104.2,60.3c-0.4,0-0.8-0.3-0.8-0.8c0-7.6-4.2-14.4-11-17.8c-6.8-3.4-14.8-2.6-20.8,1.9
					c-0.3,0.2-0.8,0.2-1-0.1c-0.2-0.3-0.2-0.8,0.1-1.1c6.5-4.9,15.1-5.7,22.4-2.1c7.3,3.6,11.9,11,11.9,19.1
					C104.9,59.9,104.6,60.3,104.2,60.3z"/>
				<path class="st0" d="M0.3,60.3c-0.4,0-0.8-0.3-0.8-0.8c0-8.2,4.5-15.5,11.9-19.1c7.3-3.6,15.9-2.8,22.4,2.1
					c0.3,0.2,0.4,0.7,0.1,1.1c-0.2,0.3-0.7,0.4-1.1,0.1c-6.1-4.6-14-5.3-20.8-1.9c-6.8,3.4-11,10.2-11,17.8
					C1.1,59.9,0.7,60.3,0.3,60.3z"/>
				<path class="st0" d="M52.3,84.6c-11.1,0-21-7.5-24.1-18.1c-0.1-0.4,0.1-0.8,0.5-0.9c0.4-0.1,0.8,0.1,0.9,0.5
					c2.9,10,12.2,17,22.7,17s19.8-7,22.7-17c0.1-0.4,0.5-0.6,0.9-0.5c0.4,0.1,0.6,0.5,0.5,0.9C73.3,77.1,63.4,84.6,52.3,84.6z"/>
				<path class="st0" d="M52.2,72.8c-0.4,0-0.8-0.3-0.8-0.8V49c0-0.4,0.3-0.8,0.8-0.8S53,48.5,53,49V72C53,72.4,52.7,72.8,52.2,72.8
					z"/>
				<path class="st0" d="M63.8,61.2H40.7c-0.4,0-0.8-0.3-0.8-0.8s0.3-0.8,0.8-0.8h23.1c0.4,0,0.8,0.3,0.8,0.8S64.2,61.2,63.8,61.2z"
					/>
			</g>
		</g>
	</g>
</g>
</svg>
