<?xml version="1.0" encoding="utf-8"?>
<!-- Generator: Adobe Illustrator 22.1.0, SVG Export Plug-In . SVG Version: 6.00 Build 0)  -->
<svg version="1.1" id="Layer_1" xmlns="http://www.w3.org/2000/svg" xmlns:xlink="http://www.w3.org/1999/xlink" x="0px" y="0px"
	 viewBox="0 0 77 91" style="enable-background:new 0 0 77 91;" xml:space="preserve">
<style type="text/css">
	.st0{fill:#3E3E3E;}
</style>
<path class="st0" d="M52.5,15.9H0.4V3c0-1.7,1.3-3,3-3h46.1c1.7,0,3,1.3,3,3V15.9z M1.9,14.4H51V3c0-0.8-0.7-1.5-1.5-1.5H3.4
	C2.6,1.5,1.9,2.2,1.9,3V14.4z"/>
<path class="st0" d="M28.2,58.1h-3.5c-13.4,0-24.3-11-24.3-24.6v-22h1.5v22.1c0,12.7,10.2,23.1,22.8,23.1h3.5
	C40.8,56.6,51,46.3,51,33.5v-22h1.5v22.1C52.5,47.1,41.6,58.1,28.2,58.1z"/>
<path class="st0" d="M27.4,67.8h-1.8c-3.3,0-6-2.6-6-5.8v-5.1H21V62c0,2.4,2,4.3,4.5,4.3h1.8c2.5,0,4.5-1.9,4.5-4.3v-5.1h1.5V62
	C33.4,65.2,30.7,67.8,27.4,67.8z"/>
<path class="st0" d="M70.9,48.9h1.5v18.5h-1.5V48.9z"/>
<path class="st0" d="M72.4,27.1v-9.4h-1.5v9.4c-2.5,0.4-4.5,2.6-4.5,5.2v12.3c0,2.6,2,4.8,4.5,5.2v17.3v0.2v0.2
	c0,12-9.8,21.8-21.8,21.8s-21.8-9.8-21.8-21.8v-0.4h-1.5v0.4c0,12.8,10.4,23.2,23.2,23.2s23.2-10.5,23.4-23.2v-0.2v-0.2V49.9
	c2.6-0.3,4.6-2.5,4.6-5.1V32.3C77,29.7,75,27.5,72.4,27.1z M75.5,44.7c0,2.1-1.7,3.8-3.8,3.8c-2.1,0-3.8-1.7-3.8-3.8V32.3
	c0-2.1,1.7-3.8,3.8-3.8c2.1,0,3.8,1.7,3.8,3.8V44.7z"/>
<path class="st0" d="M19.3,38.2c0,4,3.2,7.3,7.2,7.3c3.9,0,7.1-3.3,7.1-7.3c0-0.7-0.1-1.5-0.3-2.2s-0.6-1.3-1-1.9
	c-0.9-1.2-1.9-2.3-2.9-3.4c-0.3-0.3-0.5-0.6-0.8-0.9L27.1,28c-0.1-0.2-0.4-0.3-0.6-0.3c-0.3,0-0.5,0.1-0.6,0.2L21,33.5
	C19.9,35,19.3,36.6,19.3,38.2z M26.4,29.6c0.3,0.4,0.6,0.7,1,1.1c0.6,0.7,1.2,1.4,1.8,2.1c0.4,0.5,0.9,1,1.3,1.5s0.8,1,1.1,1.6
	s0.4,1.3,0.5,2v0.3c0,3.2-2.5,5.8-5.6,5.8s-5.7-2.6-5.7-5.8c0-0.8,0.2-1.6,0.5-2.3s0.7-1.3,1.3-1.9c1.1-1.1,2.1-2.3,3.1-3.5
	C25.9,30.2,26.1,29.9,26.4,29.6z"/>
</svg>
