<?xml version="1.0" encoding="utf-8"?>
<!-- Generator: Adobe Illustrator 22.1.0, SVG Export Plug-In . SVG Version: 6.00 Build 0)  -->
<svg version="1.1" id="Layer_1" xmlns="http://www.w3.org/2000/svg" xmlns:xlink="http://www.w3.org/1999/xlink" x="0px" y="0px"
	 viewBox="0 0 147 108" style="enable-background:new 0 0 147 108;" xml:space="preserve">
<style type="text/css">
	.st0{fill:#3E3E3E;}
</style>
<title>path5175</title>
<desc>Created with Sketch.</desc>
<g>
	<path class="st0" d="M88.5,14.6c-0.1-0.6-0.6-1.1-1.2-1.1c0,0,0,0,0,0h0c-1.9,0-2.7,1.8-2.9,2.4c-0.5,1.3-0.5,2.7,0,4
		c0.2,0.4,0.5,0.7,1,0.8c0.4,0.1,0.9-0.1,1.2-0.4c0.3-0.3,0.4-0.8,0.2-1.2c-0.2-0.5-0.2-1.2-0.1-1.8l-0.1-0.1l0.4-1l0.6-0.1
		C88.1,15.8,88.5,15.3,88.5,14.6z"/>
	<path class="st0" d="M92.9,102.1l46.5-25.2l0.6-0.3c3.3-1.9,4.8-5.9,3.3-9.4c-1.3-3-3.8-4.4-5.7-4.6c-1.9-0.3-3.5,0.2-3.5,0.3
		c-0.1,0-0.1,0-0.2,0.1L107,75.3l0.2-2c0-0.1,0-0.3,0-0.4c0-0.1,0-0.3,0-0.4c0-4.7-3.9-8.5-8.6-8.5H77.1l-0.3-0.6
		c-0.1-0.1-0.1-0.2-0.2-0.3c0-0.1-0.1-0.1-0.1-0.2c-0.3-0.6-0.7-1.2-1.2-1.9c-0.8-1.2-1.8-2.3-2.8-3.3c-4.4-4.3-10.2-6.6-16.4-6.6
		l-26.8,0v-3.9c0-0.7-0.6-1.2-1.2-1.2H4.4c-0.7,0-1.2,0.6-1.2,1.2v47.1c0,0.7,0.6,1.2,1.2,1.2H28c0.7,0,1.2-0.6,1.2-1.2V88
		l49.1,16.2C83.4,105.6,88.8,104.7,92.9,102.1z M26.8,93H5.6V48.4h6.9v31.7c0,0.7,0.6,1.2,1.2,1.2c0,0,0,0,0,0
		c0.7,0,1.2-0.6,1.2-1.2l0-31.7h11.7V93z M30.3,85.8c0,0-0.1,0-0.1,0l-0.9-0.2v-32l26.8,0c5.6,0,10.8,2.1,14.7,5.9
		c0.9,0.9,1.8,1.9,2.5,3c0.4,0.5,0.7,1.1,1,1.7l0.3,0.5c0.2,0.4,0.4,0.8,0.6,1.2l0.3,0.7h23.2c3.4,0,6.1,2.6,6.1,6
		c0,2.4-1.4,4.5-3.6,5.5L101,78c-0.8,0.3-1.6,0.5-2.3,0.5c0,0,0,0,0,0l-31.7,0v2.4h31.7c0.7,0,1.5-0.1,2.4-0.4l0.2,0
		c0.2,0,0.3-0.1,0.5-0.1l0.4-0.2l32.6-15.1l0,0c0.7-0.3,1.9-0.3,2.5-0.2c1.2,0.2,2.6,0.6,3.7,3.2c1,2.4,0.1,5-2.2,6.3l-1.1,0.6
		l-46,24.9c-2.3,1.6-5.6,2.4-8.8,2.4c-1.3,0-2.6-0.1-3.8-0.4L30.3,85.8z"/>
	<path class="st0" d="M119.4,7.3c-2.6-2.6-6-4.1-9.6-4.2c-3.6-0.1-7.1,1-10,3.2l-0.7,0.5l-0.7-0.5c-6-4.6-14.4-4.1-19.5,1l0,0
		c-2.8,2.8-4.3,6.5-4.3,10.5c0,4,1.6,7.7,4.4,10.5l19.4,19.2c0.5,0.5,1.3,0.5,1.7,0l19.3-19.2c2.9-2.8,4.4-6.6,4.4-10.6
		c0-3.8-1.5-7.5-4.3-10.2L119.4,7.3z M117.6,26.5L99.2,44.9L80.7,26.6c-2.4-2.3-3.7-5.4-3.7-8.7c0-3.3,1.3-6.4,3.7-8.7l0.8-0.8l0,0
		c4.9-4.1,12.1-3.9,16.7,0.7c0.5,0.5,1.3,0.5,1.8,0c2.4-2.4,5.5-3.7,8.8-3.7c0,0,0,0,0,0c3.3,0,6.4,1.3,8.8,3.6l0.2,0.2
		c2.3,2.3,3.6,5.3,3.6,8.5C121.4,20.9,120.1,24.1,117.6,26.5z"/>
</g>
</svg>
