<?xml version="1.0" encoding="utf-8"?>
<!-- Generator: Adobe Illustrator 20.1.0, SVG Export Plug-In . SVG Version: 6.00 Build 0)  -->
<svg version="1.1" id="Layer_1" xmlns="http://www.w3.org/2000/svg" xmlns:xlink="http://www.w3.org/1999/xlink" x="0px" y="0px"
	 viewBox="76 -18 644 644" style="enable-background:new 76 -18 644 644;" xml:space="preserve">
<g id="play">
	<path d="M561.8,612H230.2C152.9,612,90,549.1,90,471.8V140.2C90,62.9,152.9,0,230.2,0h331.5C639.1,0,702,62.9,702,140.2v331.5
		C702,549.1,639.1,612,561.8,612z M230.2,25.5C167,25.5,115.5,77,115.5,140.2v331.5c0,63.3,51.5,114.8,114.8,114.8h331.5
		c63.3,0,114.8-51.5,114.8-114.8V140.2C676.5,77,625,25.5,561.8,25.5H230.2z"/>
	<path d="M332.2,433.5c-2.1,0-4.2-0.5-6.1-1.6c-4.1-2.2-6.6-6.5-6.6-11.2V191.2c0-4.7,2.6-9,6.6-11.2c4.1-2.3,9.1-2.1,13,0.5
		l178.5,114.8c3.7,2.3,5.9,6.4,5.9,10.7s-2.2,8.4-5.8,10.7L339.2,431.5C337,432.8,334.6,433.5,332.2,433.5z M345,214.6v182.8
		L487.2,306L345,214.6z"/>
</g>
</svg>
