<?xml version="1.0" encoding="utf-8"?>
<!-- Generator: Adobe Illustrator 22.1.0, SVG Export Plug-In . SVG Version: 6.00 Build 0)  -->
<svg version="1.1" id="Layer_1" xmlns="http://www.w3.org/2000/svg" xmlns:xlink="http://www.w3.org/1999/xlink" x="0px" y="0px"
	 viewBox="0 0 86 93" style="enable-background:new 0 0 86 93;" xml:space="preserve">
<style type="text/css">
	.st0{fill:#3E3E3E;}
</style>
<title>Certificate, Winner, Medal, Appraisal, Warrent, Court, Case</title>
<desc>Created with Sketch.</desc>
<path class="st0" d="M36.6,13.5L36.6,13.5c0,0.4,0.3,0.7,0.7,0.7h24.2c0.4,0,0.7-0.3,0.7-0.7v0c0-0.4-0.3-0.7-0.7-0.7H37.3
	C36.9,12.8,36.6,13.1,36.6,13.5z"/>
<path class="st0" d="M26.2,23.9L26.2,23.9c0,0.4,0.3,0.7,0.7,0.7h45c0.4,0,0.7-0.3,0.7-0.7l0,0c0-0.4-0.3-0.7-0.7-0.7H27
	C26.6,23.2,26.2,23.5,26.2,23.9z"/>
<path class="st0" d="M48.5,58.5L48.5,58.5c0-0.4-0.3-0.7-0.7-0.7H27c-0.4,0-0.7,0.3-0.7,0.7v0c0,0.4,0.3,0.7,0.7,0.7h20.8
	C48.1,59.3,48.5,58.9,48.5,58.5z"/>
<path class="st0" d="M26.2,30.8L26.2,30.8c0,0.4,0.3,0.7,0.7,0.7h45c0.4,0,0.7-0.3,0.7-0.7l0,0c0-0.4-0.3-0.7-0.7-0.7H27
	C26.6,30.1,26.2,30.4,26.2,30.8z"/>
<path class="st0" d="M9.3,2.4C9,2.4,8.6,2.5,8.2,2.6C7.7,2.7,7.2,2.8,6.8,3C6.4,3.2,5.9,3.4,5.5,3.6C5.2,3.9,4.8,4.2,4.4,4.5
	c-0.3,0.3-0.7,0.7-0.9,1C3.2,5.9,3,6.3,2.8,6.7C2.6,7.2,2.4,7.6,2.3,8.1C2.1,8.5,2.1,9,2,9.5c0,0.2,0,0.4,0,0.6v4.2h13.8v69.2h41.5
	v6.2c0,0.3,0.1,0.5,0.4,0.6c0.2,0.1,0.5,0.1,0.8,0l4.8-3.2l4.8,3.2c0.2,0.1,0.5,0.2,0.8,0c0.2-0.1,0.4-0.4,0.4-0.6v-6.2h13.8V10.1
	c0-4.2-3.4-7.7-7.7-7.7c0,0,0,0-0.1,0c0,0-0.1,0-0.1,0c-0.1,0-0.1,0-0.2,0c-0.1,0-0.1,0-0.2,0c-0.1,0-0.2,0-0.2,0
	c-0.1,0-0.2,0-0.3,0c-0.1,0-0.2,0-0.3,0c-0.1,0-0.2,0-0.4,0c-0.1,0-0.3,0-0.4,0c-0.1,0-0.3,0-0.4,0c-0.2,0-0.3,0-0.5,0
	c-0.2,0-0.3,0-0.5,0c-0.2,0-0.4,0-0.5,0c-0.2,0-0.4,0-0.6,0c-0.2,0-0.4,0-0.6,0c-0.2,0-0.4,0-0.6,0c-0.2,0-0.4,0-0.7,0
	c-0.2,0-0.5,0-0.7,0c-0.2,0-0.5,0-0.7,0c-0.2,0-0.5,0-0.7,0c-0.3,0-0.5,0-0.8,0c-0.3,0-0.5,0-0.8,0c-0.3,0-0.5,0-0.8,0
	c-0.3,0-0.6,0-0.8,0c-0.3,0-0.6,0-0.9,0c-0.3,0-0.6,0-0.9,0c-0.3,0-0.6,0-0.9,0c-0.3,0-0.6,0-0.9,0c-0.3,0-0.6,0-0.9,0
	c-0.3,0-0.6,0-1,0c-0.3,0-0.6,0-1,0c-0.3,0-0.7,0-1,0c-0.3,0-0.7,0-1,0c-0.3,0-0.7,0-1,0c-0.3,0-0.7,0-1,0c-0.3,0-0.7,0-1,0
	c-0.3,0-0.7,0-1,0c-0.4,0-0.7,0-1.1,0c-0.4,0-0.7,0-1.1,0c-0.4,0-0.7,0-1.1,0c-0.4,0-0.7,0-1.1,0c-0.4,0-0.7,0-1.1,0
	c-0.4,0-0.7,0-1.1,0c-0.4,0-0.7,0-1.1,0c-0.4,0-0.7,0-1.1,0c-0.4,0-0.7,0-1.1,0c-0.4,0-0.7,0-1.1,0c-0.4,0-0.7,0-1.1,0
	c-0.4,0-0.7,0-1.1,0c-0.4,0-0.7,0-1.1,0c-0.4,0-0.7,0-1.1,0c-0.4,0-0.7,0-1.1,0c-0.3,0-0.7,0-1,0c-0.3,0-0.7,0-1,0c-0.3,0-0.7,0-1,0
	c-0.3,0-0.7,0-1,0c-0.3,0-0.7,0-1,0c-0.3,0-0.7,0-1,0c-0.3,0-0.7,0-1,0c-0.3,0-0.6,0-1,0c-0.3,0-0.6,0-1,0c-0.3,0-0.6,0-0.9,0
	c-0.3,0-0.6,0-0.9,0c-0.3,0-0.6,0-0.9,0c-0.3,0-0.6,0-0.9,0c-0.3,0-0.6,0-0.9,0c-0.3,0-0.6,0-0.8,0c-0.3,0-0.5,0-0.8,0
	c-0.3,0-0.5,0-0.8,0c-0.3,0-0.5,0-0.8,0c-0.2,0-0.5,0-0.7,0c-0.2,0-0.5,0-0.7,0c-0.2,0-0.5,0-0.7,0c-0.2,0-0.4,0-0.7,0
	c-0.2,0-0.4,0-0.6,0c-0.2,0-0.4,0-0.6,0c-0.2,0-0.4,0-0.6,0c-0.2,0-0.4,0-0.5,0c-0.2,0-0.3,0-0.5,0c-0.2,0-0.3,0-0.5,0
	c-0.1,0-0.3,0-0.4,0c-0.1,0-0.3,0-0.4,0c-0.1,0-0.2,0-0.3,0c-0.1,0-0.2,0-0.3,0c-0.1,0-0.2,0-0.3,0c-0.1,0-0.1,0-0.2,0
	c-0.1,0-0.1,0-0.2,0c0,0-0.1,0-0.1,0C9.6,2.4,9.5,2.4,9.3,2.4z M15.8,12.8H3.5l0-2.5c0-3.2,2.4-6.1,5.6-6.4c3.8-0.4,6.8,2.5,6.8,6.2
	V12.8z M67.8,88.3l-4.1-2.7c-0.2-0.2-0.6-0.2-0.8,0l-4.1,2.7V75.5l1.3,0.5c2,0.7,4.2,0.7,6.2,0l1.3-0.5V88.3z M64.9,75
	c-5.6,1.1-10.4-3.8-9.3-9.3c0.6-3.1,3.1-5.6,6.2-6.2c5.6-1.1,10.4,3.8,9.3,9.3C70.5,71.9,68,74.4,64.9,75z M81.6,82H69.2v-7.6
	l0.3-0.3c2.4-2.2,3.6-5.3,3-8.6c-0.7-3.8-3.7-6.9-7.5-7.5c-5.9-1.1-11.1,3.5-11.1,9.2c0,2.6,1.1,5.1,3.1,6.9l0.3,0.3V82H17.3v-72
	c0-1.6-0.5-3.2-1.6-4.6l-1.2-1.6h60.9c3.4,0,6.2,2.8,6.2,6.2V82z"/>
<path class="st0" d="M72.7,51.6L72.7,51.6c0-0.4-0.3-0.7-0.7-0.7H27c-0.4,0-0.7,0.3-0.7,0.7v0c0,0.4,0.3,0.7,0.7,0.7h45
	C72.4,52.3,72.7,52,72.7,51.6z"/>
<path class="st0" d="M26.2,37.8L26.2,37.8c0,0.4,0.3,0.7,0.7,0.7h45c0.4,0,0.7-0.3,0.7-0.7l0,0c0-0.4-0.3-0.7-0.7-0.7H27
	C26.6,37,26.2,37.4,26.2,37.8z"/>
<path class="st0" d="M26.2,44.7L26.2,44.7c0,0.4,0.3,0.7,0.7,0.7h45c0.4,0,0.7-0.3,0.7-0.7l0,0c0-0.4-0.3-0.7-0.7-0.7H27
	C26.6,44,26.2,44.3,26.2,44.7z"/>
</svg>
