<?xml version="1.0" encoding="UTF-8"?>
<svg width="19px" height="19px" viewBox="0 0 19 19" version="1.1" xmlns="http://www.w3.org/2000/svg" xmlns:xlink="http://www.w3.org/1999/xlink">
    <!-- Generator: Sketch 51.2 (57519) - http://www.bohemiancoding.com/sketch -->
    <title>Phone</title>
    <desc>Created with Sketch.</desc>
    <defs></defs>
    <g id="➕-Symbols" stroke="none" stroke-width="1" fill="none" fill-rule="evenodd">
        <g id="Distributors-email" transform="translate(-30.000000, -211.000000)" stroke="#3E3E3E" stroke-width="1.3">
            <g id="Group-2" transform="translate(31.000000, 209.000000)">
                <g id="Phone" transform="translate(0.000000, 2.000000)">
                    <g id="phone-outgoing">
                        <g id="Page-1">
                            <g id="Artboard">
                                <g id="phone-outgoing">
                                    <path d="M17.1428571,13.6457143 L17.1428571,16.2171429 C17.1448164,16.6998387 16.943184,17.1609929 16.5874953,17.4873128 C16.2318067,17.8136326 15.7550262,17.9748755 15.2742857,17.9314286 C12.6367147,17.644835 10.1031421,16.7435525 7.87714286,15.3 C5.80613839,13.9839976 4.05028813,12.2281473 2.73428571,10.1571429 C1.28569548,7.92103198 0.384208287,5.37513819 0.102857143,2.72571429 C0.059548466,2.246462 0.219661721,1.77107351 0.544084954,1.41567519 C0.868508187,1.06027688 1.32736649,0.85759602 1.80857143,0.857142857 L4.38,0.857142857 C5.2404549,0.848674151 5.97385787,1.4794007 6.09428571,2.33142857 C6.20314286,3.15428571 6.40371429,3.96257143 6.69428571,4.74 C6.92977286,5.36646431 6.77915578,6.07269108 6.30857143,6.54857143 L5.22,7.63714286 C6.4401904,9.78303928 8.21696072,11.5598096 10.3628571,12.78 L11.4514286,11.6914286 C11.9273089,11.2208442 12.6335357,11.0702271 13.26,11.3057143 C14.0374286,11.5962857 14.8457143,11.7968571 15.6685714,11.9057143 C16.5304823,12.0273088 17.1644486,12.7755365 17.1428571,13.6457143 Z" id="Shape"></path>
                                </g>
                            </g>
                        </g>
                    </g>
                </g>
            </g>
        </g>
    </g>
</svg>