<?xml version="1.0" encoding="utf-8"?>
<!-- Generator: Adobe Illustrator 22.1.0, SVG Export Plug-In . SVG Version: 6.00 Build 0)  -->
<svg version="1.1" id="Layer_1" xmlns="http://www.w3.org/2000/svg" xmlns:xlink="http://www.w3.org/1999/xlink" x="0px" y="0px"
	 viewBox="0 0 134 82" style="enable-background:new 0 0 134 82;" xml:space="preserve">
<style type="text/css">
	.st0{fill:#3E3E3E;}
</style>
<title>Group 2</title>
<desc>Created with Sketch.</desc>
<path class="st0" d="M116,0H3C1.3,0,0,1.3,0,3v69c0,1.7,1.3,3,3,3h88.8l-1.9-1.7C84.9,68.6,82,61.9,82,55c0-13.8,11.2-25,25-25
	c3.7,0,7.3,0.8,10.6,2.3L119,33V3C119,1.3,117.7,0,116,0z M113.9,2L60.5,35.8c-0.6,0.4-1.5,0.4-2.1,0L4.3,2H113.9z M117,29.9
	c-3.2-1.3-6.5-1.9-10-1.9c-14.9,0-27,12.1-27,27c0,6.6,2.5,13.1,6.9,18H3c-0.6,0-1-0.4-1-1V3c0,0,0,0,0,0l55.3,34.6
	c0.6,0.4,1.4,0.6,2.1,0.6c0.7,0,1.5-0.2,2.1-0.6l55.3-35c0.1,0.1,0.1,0.3,0.1,0.5V29.9z"/>
<path class="st0" d="M103.4,62.2c-0.2,0-0.5-0.1-0.7-0.3l-7.3-7c-0.4-0.4-0.4-1,0-1.4c0.4-0.4,1-0.4,1.4,0l6.6,6.4l12.8-12.7
	c0.4-0.4,1-0.4,1.4,0c0.4,0.4,0.4,1,0,1.4l-13.5,13.3C103.9,62.1,103.6,62.2,103.4,62.2z"/>
<path class="st0" d="M107,82c-14.9,0-27-12.1-27-27s12.1-27,27-27s27,12.1,27,27S121.9,82,107,82z M107,30c-13.8,0-25,11.2-25,25
	s11.2,25,25,25s25-11.2,25-25S120.8,30,107,30z"/>
</svg>
