<?xml version="1.0" encoding="utf-8"?>
<!-- Generator: Adobe Illustrator 22.1.0, SVG Export Plug-In . SVG Version: 6.00 Build 0)  -->
<svg version="1.1" id="Layer_1" xmlns="http://www.w3.org/2000/svg" xmlns:xlink="http://www.w3.org/1999/xlink" x="0px" y="0px"
	 viewBox="0 0 224 230" style="enable-background:new 0 0 224 230;" xml:space="preserve">
<style type="text/css">
	.st0{fill:none;stroke:#70B9C4;stroke-width:3;stroke-linecap:round;stroke-linejoin:round;}
	.st1{fill:none;}
</style>
<title>Group 2</title>
<desc>Created with Sketch.</desc>
<path id="Shape" class="st0" d="M206.3,27.2c-1-1.6-2-3.2-3.2-4.7l3.8-8.8c0.6-1.5,0-3.2-1.4-4.1l-12.8-7.8
	c-1.4-0.8-3.2-0.4-4.2,0.8l-5.7,7.8c-3.8-0.6-7.7-0.6-11.6,0l-5.7-7.8c-1-1.3-2.8-1.7-4.2-0.8l-13,7.6c-1.4,0.8-2,2.5-1.4,4.1
	l3.8,8.9c-2.5,3-4.4,6.3-5.7,10l-9.1,1c-1.6,0.2-2.8,1.6-2.8,3.2v15.1c0,1.6,1.2,3,2.8,3.3l9.5,1c1.4,3.6,3.3,7,5.7,10l-3.8,8.8
	c-0.6,1.5,0,3.2,1.4,4.1l13,7.6c1.4,0.8,3.2,0.4,4.2-0.8l5.7-7.8c3.8,0.6,7.7,0.6,11.6,0l5.7,7.8c1,1.3,2.8,1.7,4.2,0.8l13-7.6
	c1.4-0.8,2-2.5,1.4-4.1l-3.8-8.8c2.5-3,4.4-6.3,5.7-10l9.5-1c1.6-0.2,2.8-1.6,2.8-3.3V36.6c0-1.6-1.2-3-2.8-3.3l-9.5-1
	C208.2,30.7,207.2,29,206.3,27.2z"/>
<ellipse id="Oval" class="st0" cx="177.8" cy="44.6" rx="18.3" ry="18.4"/>
<path id="Shape_1_" class="st0" d="M87.4,66.8c-23.5,0-42.6,18.9-42.6,42.2c0,23.3,19.1,42.2,42.6,42.2s42.6-18.9,42.6-42.2
	C130,85.7,111,66.8,87.4,66.8z M87.4,159.6c-28.4,0-85.1,15.3-85.1,45.9v22.9h170.3v-22.9C172.6,175,115.8,159.6,87.4,159.6z"/>
<polygon id="Shape_2_" class="st1" points="-41,12 213,12 213,266 -41,266 "/>
</svg>
