<?xml version="1.0" encoding="utf-8"?>
<!-- Generator: Adobe Illustrator 22.1.0, SVG Export Plug-In . SVG Version: 6.00 Build 0)  -->
<svg version="1.1" id="Layer_1" xmlns="http://www.w3.org/2000/svg" xmlns:xlink="http://www.w3.org/1999/xlink" x="0px" y="0px"
	 viewBox="0 0 105 70" style="enable-background:new 0 0 105 70;" xml:space="preserve">
<style type="text/css">
	.st0{fill:#3E3E3E;}
</style>
<title>Group 11</title>
<desc>Created with Sketch.</desc>
<g id="_xD83D__xDEE0_-SITE-ARCHITECTURE">
	<g id="SOLUTIONS---Basic-Research" transform="translate(-665.000000, -1304.000000)">
		<g id="Group" transform="translate(299.000000, 1298.000000)">
			<g id="Group-11" transform="translate(366.333333, 6.000000)">
				<path class="st0" d="M34.7,22.3c-1.4,0-2.6-1.2-2.6-2.6s1.2-2.6,2.6-2.6s2.6,1.2,2.6,2.6S36.2,22.3,34.7,22.3z M34.7,18.5
					c-0.6,0-1.1,0.5-1.1,1.1s0.5,1.1,1.1,1.1s1.1-0.5,1.1-1.1S35.4,18.5,34.7,18.5z"/>
				<path class="st0" d="M69.6,22.3c-1.4,0-2.6-1.2-2.6-2.6s1.2-2.6,2.6-2.6c1.4,0,2.6,1.2,2.6,2.6S71.1,22.3,69.6,22.3z M69.6,18.5
					c-0.6,0-1.1,0.5-1.1,1.1s0.5,1.1,1.1,1.1c0.6,0,1.1-0.5,1.1-1.1S70.3,18.5,69.6,18.5z"/>
				<path class="st0" d="M52.2,51.8c-1.4,0-2.6-1.2-2.6-2.6c0-1.4,1.2-2.6,2.6-2.6c1.4,0,2.6,1.2,2.6,2.6
					C54.8,50.6,53.6,51.8,52.2,51.8z M52.2,48c-0.6,0-1.1,0.5-1.1,1.1c0,0.6,0.5,1.1,1.1,1.1c0.6,0,1.1-0.5,1.1-1.1
					C53.3,48.5,52.8,48,52.2,48z"/>
				<path class="st0" d="M52.2,69c-0.1,0-0.3,0-0.4-0.1L35,59.4c-0.2-0.1-0.4-0.4-0.4-0.7V39.5c0-0.3,0.1-0.5,0.4-0.7l16.7-9.5
					c0.2-0.1,0.5-0.1,0.7,0l16.9,9.5c0.2,0.1,0.4,0.4,0.4,0.7v19.2c0,0.3-0.1,0.5-0.4,0.7l-16.8,9.5C52.4,68.9,52.3,69,52.2,69z
					 M36.1,58.3l16.1,9.1l16.1-9.1V40l-16.1-9l-16,9V58.3z"/>
				<path class="st0" d="M69,40.4c-0.1,0-0.3,0-0.4-0.1l-16.8-9.5c-0.2-0.1-0.4-0.4-0.4-0.7V11c0-0.3,0.1-0.5,0.4-0.7l16.7-9.5
					c0.2-0.1,0.5-0.1,0.7,0l16.9,9.5c0.2,0.1,0.4,0.4,0.4,0.7v19.2c0,0.3-0.1,0.5-0.4,0.7l-16.8,9.5C69.2,40.4,69.1,40.4,69,40.4z
					 M52.9,29.7L69,38.8L85,29.7V11.4l-16.1-9l-16,9V29.7z"/>
				<path class="st0" d="M35.3,40.4c-0.1,0-0.3,0-0.4-0.1l-16.8-9.5c-0.2-0.1-0.4-0.4-0.4-0.7V11c0-0.3,0.1-0.5,0.4-0.7l16.7-9.5
					c0.2-0.1,0.5-0.1,0.7,0l16.9,9.5c0.2,0.1,0.4,0.4,0.4,0.7v19.2c0,0.3-0.1,0.5-0.4,0.7l-16.8,9.5C35.6,40.4,35.5,40.4,35.3,40.4z
					 M19.3,29.7l16.1,9.1l16.1-9.1V11.4l-16.1-9l-16,9V29.7z"/>
				<path class="st0" d="M85.7,11.9c-0.3,0-0.5-0.1-0.7-0.4c-0.2-0.4-0.1-0.8,0.3-1l18.5-10.4c0.4-0.2,0.8-0.1,1,0.3
					c0.2,0.4,0.1,0.8-0.3,1L86.1,11.8C85.9,11.8,85.8,11.9,85.7,11.9z"/>
				<path class="st0" d="M18.6,11.9c-0.1,0-0.3,0-0.4-0.1L-0.3,1.4c-0.4-0.2-0.5-0.7-0.3-1c0.2-0.4,0.7-0.5,1-0.3l18.5,10.4
					c0.4,0.2,0.5,0.7,0.3,1C19.1,11.7,18.8,11.9,18.6,11.9z"/>
				<path class="st0" d="M16.8,69.9c-0.3,0-0.5-0.1-0.7-0.4c-0.2-0.4-0.1-0.8,0.3-1L35,58.1c0.4-0.2,0.8-0.1,1,0.3s0.1,0.8-0.3,1
					L17.2,69.8C17.1,69.9,17,69.9,16.8,69.9z"/>
				<path class="st0" d="M87.5,69.9c-0.1,0-0.2,0-0.4-0.1L68.6,59.4c-0.4-0.2-0.5-0.7-0.3-1c0.2-0.4,0.7-0.5,1-0.3l18.5,10.4
					c0.4,0.2,0.5,0.7,0.3,1C88,69.8,87.7,69.9,87.5,69.9z"/>
			</g>
		</g>
	</g>
</g>
</svg>
