<?xml version="1.0" encoding="utf-8"?>
<!-- Generator: Adobe Illustrator 22.1.0, SVG Export Plug-In . SVG Version: 6.00 Build 0)  -->
<svg version="1.1" id="Layer_1" xmlns="http://www.w3.org/2000/svg" xmlns:xlink="http://www.w3.org/1999/xlink" x="0px" y="0px"
	 viewBox="0 0 25 21" style="enable-background:new 0 0 25 21;" xml:space="preserve">
<style type="text/css">
	.st0{fill:#3E3E3E;stroke:#3E3E3E;stroke-width:0.25;}
</style>
<title>Shopping</title>
<desc>Created with Sketch.</desc>
<g id="_x2795_-Symbols">
	<g id="header-dropdown-mobile" transform="translate(-259.000000, -19.000000)">
		<g id="Shopping" transform="translate(260.000000, 20.000000)">
			<g id="Shopping-cart-out-2_1_">
				<g id="Page-1">
					<g id="Icons">
						<path id="Shopping-cart-out-2" class="st0" d="M6.8,13.5h14.2c0.2,0,0.4-0.1,0.5-0.4l2.4-9.4c0,0,0,0,0-0.1c0,0,0,0,0-0.1
							c0,0,0-0.1,0-0.1c0-0.1,0-0.1-0.1-0.2c0-0.1-0.1-0.1-0.1-0.1c0,0-0.1-0.1-0.1-0.1c0,0,0,0-0.1,0c0,0,0,0-0.1,0h-4.1
							c-0.2,0-0.4,0.2-0.4,0.5s0.2,0.5,0.4,0.5h3.5l-2.1,8.5H7.1L5,4.1h3.5c0.3,0,0.5-0.2,0.5-0.5S8.7,3.2,8.5,3.2H4.8L4.1,0.4
							C4,0.1,3.8,0,3.6,0H0.5C0.2,0,0,0.2,0,0.5c0,0.3,0.2,0.5,0.5,0.5h2.8l0.7,2.8l2.2,9c-0.3,0.1-0.6,0.2-0.9,0.5
							c-0.4,0.4-0.6,0.9-0.6,1.4c0,0.6,0.3,1.2,0.8,1.6c-0.1,0-0.1,0.1-0.2,0.1c-0.4,0.4-0.6,0.9-0.6,1.4c0,1.1,0.9,2,2,2h0
							c0.5,0,1.1-0.2,1.4-0.6c0.4-0.4,0.6-0.9,0.6-1.4c0-0.4-0.2-0.8-0.4-1.1h11C19.2,17,19,17.4,19,17.8c0,0.5,0.2,1.1,0.6,1.4
							c0.4,0.4,0.9,0.6,1.4,0.6h0c0.5,0,1.1-0.2,1.4-0.6c0.4-0.4,0.6-0.9,0.6-1.4c0-1.1-0.9-2-2-2H6.8c-0.4,0-0.8-0.2-1-0.5
							c-0.2-0.3-0.2-0.8,0-1.1C6,13.7,6.4,13.5,6.8,13.5z M7.9,17.8c0,0.3-0.1,0.6-0.3,0.8c-0.2,0.2-0.5,0.3-0.8,0.3h0
							c-0.4,0-0.8-0.2-1-0.6c-0.2-0.3-0.2-0.8,0-1.1c0.2-0.3,0.6-0.6,1-0.6C7.4,16.7,7.9,17.2,7.9,17.8z M22.2,17.8
							c0,0.3-0.1,0.6-0.3,0.8c-0.2,0.2-0.5,0.3-0.8,0.3h0c-0.3,0-0.6-0.1-0.8-0.3S20,18.1,20,17.8c0-0.3,0.1-0.6,0.3-0.8
							c0.3-0.3,0.8-0.4,1.2-0.2C21.9,16.9,22.2,17.3,22.2,17.8z M12,3.9c-0.1,0.1-0.2,0.1-0.3,0.1s-0.2,0-0.3-0.1
							c-0.1-0.1-0.1-0.2-0.1-0.3s0-0.2,0.1-0.3l2.2-2.2c0.1-0.1,0.2-0.1,0.3-0.1s0.2,0,0.3,0.1l2.2,2.2c0.2,0.2,0.2,0.5,0,0.7
							c-0.2,0.2-0.5,0.2-0.7,0l-1.4-1.4v3.3c0,0.2-0.1,0.3-0.2,0.4c-0.1,0.1-0.3,0.1-0.5,0S13.4,6,13.4,5.8V2.5L12,3.9z"/>
					</g>
				</g>
			</g>
		</g>
	</g>
</g>
</svg>
