<?xml version="1.0" encoding="UTF-8"?>
<svg width="24px" height="24px" viewBox="0 0 24 24" version="1.1" xmlns="http://www.w3.org/2000/svg" xmlns:xlink="http://www.w3.org/1999/xlink">
    <!-- Generator: Sketch 51.2 (57519) - http://www.bohemiancoding.com/sketch -->
    <title>linkedin-logo-button</title>
    <desc>Created with Sketch.</desc>
    <defs></defs>
    <g id="➕-Symbols" stroke="none" stroke-width="1" fill="none" fill-rule="evenodd">
        <g id="footer_pattern" transform="translate(-648.000000, -203.000000)" fill="#163966" fill-rule="nonzero">
            <g id="Group" transform="translate(648.000000, 203.000000)">
                <g id="linkedin-logo-button">
                    <path d="M14.088,10.22304 C13.068,10.22304 12.61248,10.78368 12.3576,11.17728 L12.3576,10.35936 L10.43664,10.35936 C10.4616,10.9008 10.43664,16.13904 10.43664,16.13904 L12.3576,16.13904 L12.3576,12.91008 C12.3576,12.73776 12.36864,12.56448 12.42048,12.44112 C12.55968,12.09552 12.87552,11.73792 13.4064,11.73792 C14.10144,11.73792 14.37936,12.26784 14.37936,13.04544 L14.37936,16.1376 L16.30032,16.1376 L16.3008,16.1376 L16.3008,12.8232 C16.29984,11.04912 15.35184,10.22304 14.088,10.22304 Z M12.35616,11.19744 L12.34416,11.19744 C12.348,11.19072 12.35376,11.18448 12.35616,11.17776 L12.35616,11.19744 Z" id="Shape"></path>
                    <rect id="Rectangle-path" x="7.45104" y="10.35936" width="1.92096" height="5.77968"></rect>
                    <path d="M11.91648,0 C5.34576,0 0,5.34576 0,11.91648 C0,18.48672 5.34576,23.83296 11.91648,23.83296 C18.48672,23.83296 23.83296,18.48672 23.83296,11.91648 C23.83296,5.34576 18.48768,0 11.91648,0 Z M18.23568,17.3064 C18.23568,17.81328 17.8152,18.2232 17.29536,18.2232 L6.45648,18.2232 C5.93808,18.2232 5.51712,17.81328 5.51712,17.3064 L5.51712,6.34128 C5.51712,5.83488 5.93808,5.42448 6.45648,5.42448 L17.29536,5.42448 C17.81472,5.42448 18.23568,5.83536 18.23568,6.34128 L18.23568,17.3064 Z" id="Shape"></path>
                    <path d="M8.42448,7.57296 C7.76784,7.57296 7.33776,8.004 7.33776,8.57136 C7.33776,9.12576 7.75488,9.56976 8.39904,9.56976 L8.41152,9.56976 C9.0816,9.56976 9.49872,9.12576 9.49872,8.57136 C9.48576,8.00448 9.08208,7.57296 8.42448,7.57296 Z" id="Shape"></path>
                </g>
            </g>
        </g>
    </g>
</svg>