<svg version="1" id="Layer_1" xmlns="http://www.w3.org/2000/svg" viewBox="0 0 23.3 19"><path d="M23.3 2.2c-.9.4-1.8.6-2.8.8 1-.6 1.7-1.5 2.1-2.7-.9.5-2 .9-3 1.2C18.8.6 17.5 0 16.2 0c-2.6 0-4.8 2.1-4.8 4.8 0 .4 0 .7.1 1.1-4-.2-7.5-2.1-9.9-5-.4.7-.6 1.5-.6 2.4 0 1.7.8 3.1 2.1 4-.8-.1-1.5-.3-2.2-.6v.1c0 2.3 1.7 4.3 3.8 4.7-.4.1-.8.2-1.3.2-.3 0-.6 0-.9-.1.6 1.9 2.4 3.3 4.5 3.3C5.4 16.2 3.3 17 1.1 17c-.4 0-.8 0-1.1-.1C2.1 18.2 4.6 19 7.3 19 16.2 19 21 11.7 21 5.3v-.6c.9-.6 1.7-1.5 2.3-2.5z" fill="#000"></path></svg>