<?xml version="1.0" encoding="UTF-8"?>
<svg width="16px" height="15px" viewBox="0 0 16 15" version="1.1" xmlns="http://www.w3.org/2000/svg" xmlns:xlink="http://www.w3.org/1999/xlink">
    <!-- Generator: Sketch 51.2 (57519) - http://www.bohemiancoding.com/sketch -->
    <title>Shape</title>
    <desc>Created with Sketch.</desc>
    <defs></defs>
    <g id="➕-Symbols" stroke="none" stroke-width="1" fill="none" fill-rule="evenodd">
        <g id="btn/search/publications/black" transform="translate(-181.000000, -15.000000)" fill="#000000" fill-rule="nonzero">
            <g id="Group-2" transform="translate(24.000000, 11.000000)">
                <path d="M172.30231,17.8360951 L168.432833,13.966618 C169.303455,12.8800381 169.776856,11.5286938 169.774647,10.1363453 C169.774647,6.74737817 167.027439,4 163.638302,4 C160.249335,4 157.501957,6.74737817 157.501957,10.1363453 C157.501957,13.5253125 160.249335,16.2726906 163.638302,16.2726906 C165.087161,16.2726906 166.418748,15.7705331 167.468575,14.930706 L171.338052,18.8001831 C171.465759,18.9282484 171.639237,19.0001421 171.820096,18.9999552 C172.09585,18.9999653 172.344461,18.8338721 172.450012,18.5791179 C172.555563,18.3243637 172.497269,18.0311125 172.30231,17.8360951 Z M163.638302,14.9090584 C161.002401,14.9090584 158.865589,12.7722465 158.865589,10.1363453 C158.865589,7.5004441 161.002401,5.36363229 163.638302,5.36363229 C166.274374,5.36363229 168.411015,7.5004441 168.411015,10.1363453 C168.411015,12.7722465 166.274374,14.9090584 163.638302,14.9090584 Z" id="Shape"></path>
            </g>
        </g>
    </g>
</svg>